<svg width="24" height="24" viewBox="0 0 24 24" fill="none" xmlns="http://www.w3.org/2000/svg">
<path d="M10.6526 8H11.5509C11.8035 8 12 8.18667 12 8.42667V12.16C12 12.2667 11.9439 12.3733 11.8877 12.48L9.3614 14.88C9.19298 15.04 8.91228 15.04 8.74386 14.88L8.12632 14.2933C7.95789 14.1333 7.95789 13.8667 8.12632 13.7067L10.2316 11.68V8.45333C10.2035 8.24 10.3719 8.02667 10.6246 8C10.6246 8 10.6246 8 10.6526 8Z" fill="black"/>
<path d="M20.5775 11.6881H19.269C19.269 11.6077 19.2417 11.5004 19.2417 11.3932C18.8874 6.99709 14.9892 3.7 10.5185 4.02167C6.0479 4.37014 2.69492 8.20335 3.02204 12.5995C3.34916 16.7543 6.81118 19.9442 11.0365 19.9978C13.3263 20.0514 15.5344 19.1132 17.0882 17.4781C17.2245 17.3441 17.3608 17.21 17.1972 17.0492L16.4885 16.2182C16.2431 15.9234 16.0251 16.0574 15.8342 16.245C14.4712 17.7193 12.454 18.4699 10.4368 18.2555C7.62898 17.9874 5.01202 15.4141 4.71216 12.7067C4.35778 9.24877 6.92022 6.13932 10.4368 5.79084C13.9533 5.44237 17.1155 7.9621 17.4698 11.42H17.4426C17.4698 11.5272 17.4698 11.6077 17.4698 11.7149H16.1886C15.9433 11.7149 15.7525 11.9025 15.7525 12.1438C15.7525 12.251 15.7797 12.3314 15.8342 12.4118L18.015 15.012C18.2059 15.1996 18.5057 15.1996 18.6965 15.012L20.8773 12.4118C21.0409 12.251 21.0409 11.9829 20.8773 11.8221C20.7956 11.7417 20.6865 11.6881 20.5775 11.6881Z" fill="#171717"/>
</svg>
