<svg width="40" height="43" viewBox="0 0 40 43" fill="none" xmlns="http://www.w3.org/2000/svg">
<path d="M36.1747 8.27201C31.7108 5.75399 27.2495 3.2321 22.7869 0.714084C22.037 0.29958 21.1841 0.116216 20.3378 0H19.37C18.5013 0.10976 17.6259 0.303454 16.8628 0.737327C12.2048 3.37156 7.54152 5.99805 2.88352 8.63228C1.38235 9.59429 0.219169 11.1477 0 12.9168V30.0212C0.254817 31.5914 1.10244 33.1023 2.4267 34.0449C7.358 36.8457 12.3012 39.6246 17.2338 42.4215C17.89 42.7869 18.6491 42.9109 19.3885 43H20.3563C21.0877 42.8941 21.8443 42.7766 22.4859 42.3944C27.169 39.7447 31.8587 37.1053 36.547 34.4607C38.3242 33.5981 39.4939 31.7335 39.688 29.8288C39.6973 24.3163 39.688 18.8025 39.692 13.29C39.5745 11.1516 38.0878 9.23403 36.1747 8.27201ZM20.4091 1.12601C21.1551 1.22673 21.8905 1.44754 22.5295 1.84396C27.0805 4.4188 31.6356 6.98589 36.1879 9.55814C36.7332 9.87967 37.1808 10.3342 37.5729 10.8197C35.6691 11.8954 33.7691 12.9775 31.8587 14.0428C28.0457 11.8812 24.2274 9.72859 20.4104 7.57471C20.4038 5.42471 20.4065 3.27601 20.4091 1.12601ZM20.4065 21.868L20.4553 21.7854C24.2723 19.625 28.0457 17.4815 31.8613 15.3199C33.9091 16.4691 35.9529 17.6261 37.9967 18.7831C32.1359 22.0992 26.2738 25.4113 20.4078 28.717C20.4051 26.4082 20.4078 24.1756 20.4065 21.868ZM19.8546 8.53156C23.4788 10.5886 27.1096 12.6314 30.7351 14.6833C27.1043 16.7326 23.4761 18.7857 19.844 20.8324C16.2172 18.7793 12.5864 16.7338 8.95951 14.6794C12.5916 12.6314 16.2185 10.5731 19.8546 8.53156ZM19.2829 28.7209C13.4195 25.4113 7.56264 22.0927 1.69526 18.7883C3.73643 17.6313 5.78157 16.4808 7.82274 15.325C11.645 17.4815 15.4672 19.6354 19.2842 21.7983C19.2829 24.1058 19.2868 26.4134 19.2829 28.7209ZM3.53707 9.53877C8.16998 6.9252 12.8016 4.30775 17.4332 1.69288C18.0009 1.38039 18.6412 1.21769 19.2829 1.1273C19.2855 3.27601 19.2855 5.42471 19.2829 7.57471C15.4633 9.72988 11.645 11.8889 7.82406 14.0428C5.92284 12.9671 4.01897 11.8967 2.12039 10.8197C2.52044 10.3239 2.97858 9.8603 3.53839 9.53877H3.53707ZM1.53946 11.7779C3.25716 12.7438 4.96959 13.7148 6.68465 14.6807C4.83624 15.7331 2.98254 16.7765 1.13149 17.8224C1.12885 16.3581 1.13281 14.8938 1.12885 13.4294C1.11697 12.8535 1.32557 12.3047 1.53946 11.7779ZM7.26029 35.5066C6.06147 34.83 4.86264 34.1508 3.66249 33.4741C2.24978 32.7936 1.3401 31.319 1.13809 29.8198C1.11961 26.4624 1.13545 23.1051 1.13149 19.749C3.17663 20.8996 5.21912 22.054 7.26161 23.2084C7.26029 27.3082 7.26293 31.4068 7.26029 35.5066ZM8.39311 23.8489C11.8338 25.791 15.2732 27.7356 18.7125 29.679C15.2732 31.6211 11.8338 33.5632 8.39311 35.5015C8.39179 31.6173 8.39046 27.7331 8.39311 23.8489ZM21.7347 41.5408C20.3167 42.0974 18.5884 42.029 17.3038 41.1793C14.5245 39.6039 11.7374 38.0414 8.96083 36.4609C12.589 34.4103 16.2158 32.3623 19.844 30.3118C23.4748 32.3611 27.1069 34.4078 30.7325 36.4674C27.7301 38.1525 24.741 39.8635 21.7347 41.5408ZM31.2976 35.5028C27.8582 33.562 24.4175 31.6199 20.9795 29.6765C24.4188 27.7331 27.8556 25.7884 31.2976 23.8502C31.3002 27.7344 31.2989 31.6186 31.2976 35.5028ZM38.5658 29.7036C38.4351 31.0284 37.7208 32.3004 36.6461 33.1177C35.2479 33.9261 33.8352 34.7086 32.4304 35.5053C32.4291 31.4068 32.3828 27.3922 32.3802 23.2936L32.429 23.211C34.4729 22.0514 36.5206 20.8983 38.5671 19.7451C38.5684 23.0638 38.5724 26.3837 38.5671 29.7036H38.5658ZM38.5671 17.8327C36.7121 16.7868 34.8584 15.737 33.0034 14.6871C34.7171 13.7174 36.4322 12.7502 38.1472 11.7817C38.3677 12.3086 38.5777 12.8574 38.5711 13.4346C38.5658 14.9002 38.5711 16.3671 38.5671 17.8327Z" fill="#20C82C"/>
</svg>
