<svg width="24" height="25" viewBox="0 0 24 25" fill="none" xmlns="http://www.w3.org/2000/svg">
<path d="M18.7637 16.7806C18.7637 17.0326 18.7076 17.2916 18.5884 17.5436C18.4692 17.7956 18.315 18.0336 18.1117 18.2576C17.7682 18.6356 17.3896 18.9086 16.962 19.0836C16.5413 19.2586 16.0857 19.3496 15.5949 19.3496C14.8798 19.3496 14.1157 19.1816 13.3095 18.8386C12.5033 18.4956 11.6971 18.0336 10.8979 17.4526C10.0917 16.8646 9.32752 16.2136 8.59842 15.4926C7.87634 14.7646 7.22436 14.0016 6.64249 13.2036C6.06763 12.4056 5.60493 11.6076 5.26843 10.8166C4.93192 10.0186 4.76367 9.25561 4.76367 8.52761C4.76367 8.05161 4.8478 7.59661 5.01605 7.17661C5.1843 6.74961 5.4507 6.35761 5.82226 6.00761C6.27093 5.56661 6.76167 5.34961 7.28045 5.34961C7.47674 5.34961 7.67304 5.39161 7.8483 5.47561C8.03057 5.55961 8.19181 5.68561 8.318 5.86761L9.94444 8.15661C10.0706 8.33161 10.1618 8.49261 10.2249 8.64661C10.288 8.79361 10.323 8.94061 10.323 9.07361C10.323 9.24161 10.2739 9.40961 10.1758 9.57061C10.0847 9.73161 9.95145 9.89961 9.7832 10.0676L9.2504 10.6206C9.17329 10.6976 9.13823 10.7886 9.13823 10.9006C9.13823 10.9566 9.14524 11.0056 9.15927 11.0616C9.1803 11.1176 9.20133 11.1596 9.21535 11.2016C9.34154 11.4326 9.55886 11.7336 9.86733 12.0976C10.1828 12.4616 10.5193 12.8326 10.8839 13.2036C11.2624 13.5746 11.627 13.9176 11.9985 14.2326C12.3631 14.5406 12.6645 14.7506 12.9029 14.8766C12.9379 14.8906 12.98 14.9116 13.0291 14.9326C13.0852 14.9536 13.1412 14.9606 13.2043 14.9606C13.3235 14.9606 13.4146 14.9186 13.4918 14.8416L14.0246 14.3166C14.1998 14.1416 14.3681 14.0086 14.5293 13.9246C14.6906 13.8266 14.8518 13.7776 15.0271 13.7776C15.1603 13.7776 15.3005 13.8056 15.4547 13.8686C15.6089 13.9316 15.7702 14.0226 15.9454 14.1416L18.2659 15.7866C18.4482 15.9126 18.5744 16.0596 18.6515 16.2346C18.7216 16.4096 18.7637 16.5846 18.7637 16.7806Z" stroke="#171717" stroke-width="1.3" stroke-miterlimit="10"/>
</svg>
